<svg width="21" height="33" viewBox="0 0 21 33" fill="none" xmlns="http://www.w3.org/2000/svg">
<path d="M9.69609 31.2888C10.0961 31.8221 10.8961 31.8221 11.2961 31.2888L18.9641 21.0648C19.4585 20.4056 18.9881 19.4648 18.1641 19.4648H16.0078C15.4555 19.4648 15.0078 19.0171 15.0078 18.4648L15.0078 10.4102C15.0078 9.85787 14.5601 9.41016 14.0078 9.41016H6.98437C6.43209 9.41016 5.98437 9.85787 5.98437 10.4102V18.4648C5.98437 19.0171 5.53666 19.4648 4.98437 19.4648H2.82812C2.00408 19.4648 1.5337 20.4056 2.02813 21.0648L9.69609 31.2888Z" fill="#CBB9F0"/>
<path d="M6.98437 7.60547C6.43209 7.60547 5.98438 7.15775 5.98438 6.60547V6.02734C5.98438 5.47506 6.43209 5.02734 6.98438 5.02734H14.0078C14.5601 5.02734 15.0078 5.47506 15.0078 6.02734V6.60547C15.0078 7.15775 14.5601 7.60547 14.0078 7.60547L6.98437 7.60547Z" fill="#CBB9F0"/>
<path d="M6.98437 3.22266C6.43209 3.22266 5.98438 2.77494 5.98438 2.22266V1.64453C5.98438 1.09225 6.43209 0.644531 6.98438 0.644531L14.0078 0.644531C14.5601 0.644531 15.0078 1.09225 15.0078 1.64453V2.22266C15.0078 2.77494 14.5601 3.22266 14.0078 3.22266L6.98437 3.22266Z" fill="#CBB9F0"/>
</svg>
