<svg width="50" height="62" viewBox="0 0 50 62" fill="none" xmlns="http://www.w3.org/2000/svg">
<path d="M20.8009 27.0093C20.5517 27.3195 20.1772 27.5054 19.7596 27.5262C19.342 27.547 18.9156 27.4009 18.5742 27.1201L5.70135 16.534C5.35994 16.2532 5.13148 15.8607 5.06624 15.4429C5.001 15.0251 5.10431 14.6161 5.35346 14.3059C5.6026 13.9958 5.97716 13.8099 6.39474 13.7891C6.81233 13.7683 7.23872 13.9144 7.58013 14.1951L20.453 24.7813C20.7944 25.0621 21.0229 25.4545 21.0881 25.8724C21.1533 26.2902 21.05 26.6992 20.8009 27.0093Z" fill="#FF7833"/>
<path d="M44.6401 19.9238C44.248 19.8563 43.9038 19.6188 43.6833 19.2636C43.4627 18.9084 43.3837 18.4647 43.4638 18.03L46.4832 1.63909C46.5633 1.20437 46.7958 0.81431 47.1297 0.554705C47.4635 0.295099 47.8713 0.187218 48.2634 0.254793C48.6554 0.322369 48.9996 0.559866 49.2202 0.915038C49.4408 1.27021 49.5197 1.71396 49.4396 2.14867L46.4202 18.5396C46.3401 18.9743 46.1076 19.3643 45.7737 19.6239C45.4399 19.8835 45.0321 19.9914 44.6401 19.9238Z" fill="#FF7833"/>
<path d="M18.1836 54.675L2.60085 60.5875C2.18757 60.7443 1.7363 60.7465 1.3463 60.5936C0.956311 60.4407 0.659545 60.1453 0.52129 59.7722C0.383036 59.3992 0.414616 58.9792 0.609088 58.6045C0.803559 58.2299 1.14499 57.9313 1.55827 57.7745L17.141 51.862C17.5542 51.7052 18.0055 51.703 18.3955 51.8559C18.7855 52.0088 19.0823 52.3042 19.2205 52.6773C19.3588 53.0503 19.3272 53.4703 19.1327 53.845C18.9383 54.2196 18.5968 54.5182 18.1836 54.675Z" fill="#FF7833"/>
</svg>
