<svg width="23" height="32" viewBox="0 0 23 32" fill="none" xmlns="http://www.w3.org/2000/svg">
<path d="M12.3641 0.956885C12.2381 0.844399 12.0751 0.782227 11.9062 0.782227C11.7374 0.782227 11.5744 0.844399 11.4484 0.956885C11.018 1.34092 0.90625 10.4721 0.90625 20.0323C0.90625 22.9497 2.06518 25.7476 4.12808 27.8105C6.19098 29.8734 8.98887 31.0323 11.9062 31.0323C14.8236 31.0323 17.6215 29.8734 19.6844 27.8105C21.7473 25.7476 22.9062 22.9497 22.9062 20.0323C22.9062 10.4721 12.7945 1.34092 12.3641 0.956885ZM8.71921 26.9268C8.62783 27.0845 8.47757 27.1996 8.30144 27.2466C8.12531 27.2936 7.93772 27.2688 7.77987 27.1776C6.52802 26.4509 5.48851 25.4087 4.76498 24.155C4.04145 22.9013 3.65917 21.4798 3.65625 20.0323C3.65625 19.85 3.72868 19.6751 3.85761 19.5462C3.98655 19.4173 4.16141 19.3448 4.34375 19.3448C4.52609 19.3448 4.70095 19.4173 4.82989 19.5462C4.95882 19.6751 5.03125 19.85 5.03125 20.0323C5.03371 21.2388 5.35241 22.4235 5.95556 23.4684C6.55871 24.5132 7.42525 25.3817 8.46875 25.9872C8.5469 26.0324 8.61537 26.0926 8.67026 26.1643C8.72514 26.236 8.76536 26.3178 8.78862 26.4051C8.81188 26.4924 8.81772 26.5833 8.80581 26.6728C8.7939 26.7624 8.76447 26.8486 8.71921 26.9268Z" fill="#88A9FF"/>
</svg>
