<svg width="35" height="34" viewBox="0 0 35 34" fill="none" xmlns="http://www.w3.org/2000/svg">
<path d="M11.7399 8.3084C11.4183 8.51925 11.1129 8.75278 10.8262 9.00713C9.62778 10.065 8.51587 11.2123 7.5006 12.4387C5.97872 14.2657 5.03363 16.4837 4.77997 18.8236C4.52631 21.1636 4.97497 23.5249 6.07154 25.6214C9.39185 31.7806 16.3459 31.4855 17.0206 31.439C17.1162 31.4493 17.3393 31.4597 17.6634 31.4597C19.9 31.4597 26.8913 30.8489 29.4466 23.489C32.5012 14.6901 24.1181 10.2959 24.0331 10.2493C23.9682 10.2159 23.8968 10.1963 23.8235 10.1918C23.7502 10.1873 23.6768 10.1981 23.6081 10.2234C23.5392 10.2469 23.4758 10.2837 23.4219 10.3318C23.368 10.3798 23.3247 10.4381 23.2947 10.5029C22.1631 13.0649 22.6413 14.773 23.3691 15.8288C20.7341 14.8092 20.3994 12.2886 20.4684 10.7048C20.5284 9.86578 20.4458 9.02288 20.2241 8.21006C18.6303 2.65645 12.7441 2.48047 12.6856 2.48047H12.675C12.5781 2.48039 12.483 2.50585 12.3998 2.55414C12.3166 2.60243 12.2483 2.67176 12.2022 2.75479C12.157 2.83918 12.1366 2.93406 12.1432 3.02902C12.1497 3.12397 12.183 3.21533 12.2394 3.29307C13.0416 4.41621 13.3603 5.44619 13.1797 6.34678C13.0842 6.75004 12.9079 7.13095 12.6608 7.46759C12.4137 7.80423 12.1008 8.08998 11.7399 8.3084ZM22.5456 19.1931C22.5456 19.0558 22.6015 18.9242 22.7012 18.8271C22.8008 18.73 22.9359 18.6755 23.0768 18.6755C23.2177 18.6755 23.3528 18.73 23.4525 18.8271C23.5521 18.9242 23.6081 19.0558 23.6081 19.1931V24.3378C23.6084 24.4054 23.6224 24.4724 23.6492 24.5347C23.6761 24.5971 23.7153 24.6537 23.7647 24.7013C23.814 24.7489 23.8725 24.7865 23.9368 24.8121C24.0011 24.8376 24.0699 24.8506 24.1393 24.8502H24.9681C25.109 24.8502 25.2441 24.9047 25.3437 25.0018C25.4434 25.0989 25.4993 25.2305 25.4993 25.3678C25.4993 25.505 25.4434 25.6367 25.3437 25.7338C25.2441 25.8308 25.109 25.8854 24.9681 25.8854H24.1393C23.7176 25.8853 23.313 25.7224 23.0143 25.4324C22.7156 25.1423 22.547 24.7487 22.5456 24.3378V19.1931ZM18.9596 22.5936C18.8187 22.5936 18.6836 22.539 18.584 22.442C18.4844 22.3449 18.4284 22.2132 18.4284 22.076C18.4284 21.9387 18.4844 21.8071 18.584 21.71C18.6836 21.6129 18.8187 21.5584 18.9596 21.5584H20.7819C21.0579 21.5588 21.3225 21.6659 21.5176 21.856C21.7128 22.0462 21.8227 22.3039 21.8231 22.5729V24.4672C21.8225 24.8431 21.669 25.2035 21.3961 25.4694C21.1233 25.7352 20.7534 25.8848 20.3675 25.8854H19.8894C19.601 25.886 19.319 25.8033 19.0789 25.6478C18.8388 25.4923 18.6514 25.2708 18.5405 25.0115C18.4296 24.7522 18.4001 24.4667 18.4558 24.191C18.5115 23.9154 18.6499 23.6621 18.8534 23.4631C19.1312 23.201 19.5027 23.0544 19.8894 23.0542H20.7606V22.5729L18.9596 22.5936ZM14.5821 23.1577C14.583 22.753 14.7409 22.3636 15.0243 22.0677C15.3077 21.7719 15.6955 21.5914 16.1098 21.5625C16.5241 21.5337 16.9343 21.6587 17.2579 21.9123C17.5816 22.166 17.7948 22.5295 17.8546 22.93C17.8743 23.0651 17.8385 23.2023 17.7549 23.3118C17.6714 23.4213 17.5468 23.4943 17.4084 23.5148C17.2685 23.533 17.1268 23.4972 17.0137 23.415C16.9005 23.3328 16.8248 23.2107 16.8028 23.0749C16.7805 22.9338 16.7046 22.8061 16.59 22.7171C16.4753 22.6282 16.3306 22.5846 16.1844 22.595C16.0383 22.6055 15.9016 22.6692 15.8015 22.7735C15.7015 22.8778 15.6455 23.015 15.6446 23.1577V24.286C15.6462 24.4361 15.7084 24.5795 15.8178 24.6851C15.9272 24.7907 16.075 24.85 16.229 24.8502C16.3741 24.8518 16.5145 24.7999 16.6219 24.7049C16.7293 24.6098 16.7958 24.4787 16.8081 24.3378C16.8147 24.2702 16.8349 24.2045 16.8676 24.1445C16.9003 24.0844 16.9448 24.0313 16.9986 23.988C17.0524 23.9448 17.1143 23.9123 17.181 23.8924C17.2477 23.8724 17.3177 23.8655 17.3871 23.872C17.4566 23.8784 17.524 23.8981 17.5856 23.93C17.6472 23.9618 17.7017 24.0052 17.7461 24.0576C17.7905 24.11 17.8239 24.1704 17.8443 24.2353C17.8648 24.3003 17.8719 24.3685 17.8653 24.4361C17.8248 24.8457 17.6241 25.2245 17.3049 25.494C16.9857 25.7634 16.5723 25.903 16.1504 25.8837C15.7284 25.8644 15.3303 25.6877 15.0384 25.3903C14.7464 25.0929 14.5831 24.6975 14.5821 24.286V23.1577ZM13.7746 20.8079C13.9088 20.8503 14.0204 20.9426 14.0851 21.0647C14.1497 21.1869 14.1623 21.329 14.1199 21.4601C13.9128 22.1165 13.4888 22.6878 12.914 23.0853C13.4758 23.7122 13.8182 24.4972 13.8915 25.3264C13.9015 25.4634 13.8558 25.5987 13.7644 25.7032C13.673 25.8077 13.5432 25.8731 13.4028 25.8854H13.3603C13.2265 25.8856 13.0975 25.8367 12.9991 25.7484C12.9007 25.6602 12.8399 25.5391 12.829 25.4092C12.766 24.7192 12.4535 24.0735 11.9471 23.5873C11.8242 23.6349 11.6982 23.6747 11.5699 23.7063V25.3678C11.5699 25.505 11.514 25.6367 11.4143 25.7338C11.3147 25.8308 11.1796 25.8854 11.0387 25.8854C10.8978 25.8854 10.7627 25.8308 10.663 25.7338C10.5634 25.6367 10.5074 25.505 10.5074 25.3678V19.0637C10.5074 18.9264 10.5634 18.7948 10.663 18.6977C10.7627 18.6006 10.8978 18.5461 11.0387 18.5461C11.1796 18.5461 11.3147 18.6006 11.4143 18.6977C11.514 18.7948 11.5699 18.9264 11.5699 19.0637V22.6298C11.639 22.5987 11.7134 22.5729 11.7931 22.5314C11.8215 22.5237 11.8484 22.5115 11.8728 22.4952C12.1621 22.3656 12.421 22.1791 12.633 21.9476C12.8451 21.716 13.0059 21.4443 13.1053 21.1495C13.1483 21.0183 13.2427 20.9088 13.368 20.8449C13.4933 20.781 13.6394 20.7677 13.7747 20.8079H13.7746Z" fill="#FF7833"/>
<path d="M19.6013 24.1977C19.5275 24.269 19.4855 24.3656 19.4844 24.4668C19.484 24.5177 19.494 24.5681 19.514 24.6151C19.5339 24.6621 19.5633 24.7047 19.6005 24.7404C19.6377 24.7761 19.6818 24.8042 19.7303 24.823C19.7788 24.8418 19.8306 24.8509 19.8828 24.8498H20.361C20.4126 24.85 20.4638 24.8401 20.5115 24.8209C20.5593 24.8017 20.6027 24.7735 20.6392 24.7379C20.6757 24.7023 20.7047 24.6601 20.7244 24.6135C20.7441 24.567 20.7542 24.5172 20.7541 24.4668V24.089H19.8828C19.8308 24.0876 19.779 24.0965 19.7306 24.1152C19.6822 24.1339 19.6382 24.162 19.6013 24.1977Z" fill="#FF7833"/>
</svg>
